PathFileType	4	(X/Y/Z)	./resultDataOpenSim/trcMotMarkerGrf/sub06/qtm-03-06.trc
DataRate	CameraRate	NumFrames	NumMarkers	Units	OrigDataRate	OrigDataStartFrame	OrigNumFrames
250.000000	250.000000	11	24	m	250.000000	333	532
Frame#	Time	L.Toe.Tip			R.Toe.Tip			L.Ankle.Lat			R.Ankle.Lat			L.Ankle.Med			R.Ankle.Med			L.Heel			R.Heel			L.Knee.Lat			R.Knee.Lat			L.Knee.Med			R.Knee.Med			L.Thigh.Upper			R.Thigh.Upper			L.ASIS			R.ASIS			V.Sacral			L.Acromium			R.Acromium			C7			L.Elbow			R.Elbow			L.Wrist.Lat			R.Wrist.Lat
		X1	Y1	Z1	X2	Y2	Z2	X3	Y3	Z3	X4	Y4	Z4	X5	Y5	Z5	X6	Y6	Z6	X7	Y7	Z7	X8	Y8	Z8	X9	Y9	Z9	X10	Y10	Z10	X11	Y11	Z11	X12	Y12	Z12	X13	Y13	Z13	X14	Y14	Z14	X15	Y15	Z15	X16	Y16	Z16	X17	Y17	Z17	X18	Y18	Z18	X19	Y19	Z19	X20	Y20	Z20	X21	Y21	Z21	X22	Y22	Z22	X23	Y23	Z23	X24	Y24	Z24

333	1.328	0.46759028	0.083121024	-0.009917157	0.85161222	0.036225824	0.17027328	0.44664114	0.21020053	-0.042731153	0.71452404	0.061276089	0.18969142	0.46531104	0.22053067	0.039060737	0.73658025	0.080855105	0.10266746	0.39036068	0.26033219	0.0042733092	0.66111526	0.038563827	0.12932177	0.76771655	0.40274626	-0.070476636	0.80039714	0.44197544	0.21558395	0.77104184	0.39223321	0.052240686	0.76326792	0.43094865	0.093453548	0.66324838	0.78783943	-0.069678899	0.69888689	0.80572403	0.27276144	0.74245776	0.83918675	-0.036576367	0.77974522	0.85631382	0.2077541	0.57614403	0.92384373	0.11097181	0.70065362	1.335443	-0.079742938	0.71609878	1.3128693	0.28099259	0.63080088	1.3621299	0.10418589	0.6913459	1.0099326	-0.13344203	0.64392314	1.0013437	0.34577017	0.87699295	0.8491393	-0.11122393	0.81784322	0.82838343	0.37160796
334	1.332	0.4839803	0.08361403	-0.010950778	0.85153958	0.036241185	0.17029283	0.46002372	0.21029232	-0.042634651	0.71445517	0.061281133	0.18969061	0.47887264	0.2203853	0.039206471	0.7364699	0.080933947	0.10268092	0.40284494	0.25899748	0.0048112313	0.66100326	0.038642391	0.12937777	0.77900731	0.40625958	-0.070497125	0.80117233	0.44199727	0.21548168	0.78202245	0.39578486	0.052490862	0.76328853	0.43107087	0.093424202	0.66986593	0.79019217	-0.069961574	0.70453594	0.80697652	0.27260558	0.74895352	0.84148506	-0.03610906	0.78514765	0.85804783	0.20814636	0.58173626	0.92551597	0.11079904	0.70593127	1.3372503	-0.07972248	0.72192046	1.3151047	0.28086736	0.63629931	1.3639313	0.10425249	0.69414612	1.012111	-0.13343282	0.65141504	1.0031127	0.34624055	0.87780287	0.84885709	-0.11306417	0.82821842	0.83248147	0.37017464
335	1.336	0.50057879	0.083969006	-0.012090722	0.85147499	0.036255061	0.17030735	0.4734689	0.21014577	-0.042521567	0.71441273	0.061305988	0.18968441	0.49253574	0.21997312	0.039388616	0.7363713	0.081012462	0.10268435	0.41537478	0.2573592	0.005413769	0.66089861	0.038714968	0.12942611	0.79019855	0.40976946	-0.070448091	0.80196861	0.44200487	0.21540024	0.79296866	0.39932067	0.052714033	0.763059	0.43119932	0.093394552	0.67642806	0.79253094	-0.070180269	0.71038272	0.80815979	0.27233127	0.755554	0.84380057	-0.035616498	0.79057177	0.85970909	0.20851074	0.58729599	0.92714628	0.11063546	0.71120406	1.338994	-0.079700993	0.7277237	1.3172914	0.28074043	0.64180995	1.3656482	0.10431366	0.69688886	1.014242	-0.13358921	0.65888947	1.004836	0.34669193	0.87858263	0.84856997	-0.11491552	0.8385225	0.83657792	0.3687357
336	1.34	0.51739188	0.084210058	-0.013363067	0.85142156	0.036269641	0.17031592	0.48699924	0.20976256	-0.042425036	0.7143858	0.061347254	0.18967051	0.50625869	0.2192978	0.039631964	0.73628347	0.081090125	0.10268337	0.42798498	0.25542341	0.0060735018	0.66081102	0.038782295	0.12945036	0.80130769	0.41327127	-0.070364683	0.80276757	0.44199759	0.21531694	0.80389851	0.40282929	0.052894184	0.76260562	0.43135432	0.093335824	0.68293822	0.79484799	-0.070305218	0.71598949	0.80919416	0.27213832	0.76200147	0.84609675	-0.035136443	0.79601084	0.86128735	0.20884926	0.59283696	0.92872654	0.11053612	0.71647039	1.3406758	-0.079680298	0.73351256	1.3194284	0.28061183	0.64732862	1.3672777	0.10435938	0.6995945	1.0163247	-0.13385441	0.66639927	1.0065188	0.34713933	0.87932755	0.84828079	-0.11677867	0.84874865	0.84065786	0.36728926
337	1.344	0.53439305	0.084359276	-0.014754047	0.85137944	0.036286245	0.17032035	0.50062426	0.20915679	-0.042356505	0.71436263	0.061412524	0.18965165	0.52001999	0.21838511	0.039924698	0.73619684	0.081171206	0.10269227	0.4407062	0.25319468	0.0067778542	0.66073351	0.038852152	0.12946383	0.81231347	0.41677531	-0.070282028	0.80355987	0.44197751	0.21521865	0.81483343	0.40633717	0.053025436	0.76217424	0.43156795	0.093249181	0.68947496	0.79713933	-0.070437161	0.72080469	0.80997544	0.27230628	0.76823882	0.84834595	-0.034663932	0.80145927	0.86277186	0.20916674	0.59846252	0.93024575	0.11062941	0.72172513	1.342294	-0.07966252	0.73929456	1.321517	0.28048502	0.65283822	1.3688385	0.10439369	0.7023088	1.0183703	-0.13409687	0.67400251	1.0081747	0.34760599	0.88003971	0.84799898	-0.11865187	0.85889884	0.84472061	0.36584167
338	1.348	0.55152263	0.084420388	-0.016201039	0.85134667	0.036303342	0.17032318	0.51434071	0.20834374	-0.042306357	0.71433826	0.061513785	0.18963184	0.53390147	0.21725853	0.040194527	0.73610387	0.081261674	0.10272303	0.45355022	0.25067777	0.0075091308	0.66067534	0.038930088	0.12945969	0.82318259	0.42028959	-0.070210223	0.80434157	0.44194862	0.2151036	0.82577834	0.40988172	0.053127829	0.76208646	0.43183915	0.093128459	0.69613309	0.79940674	-0.070703166	0.72490206	0.81052551	0.27283989	0.77436089	0.85053217	-0.034190987	0.80691403	0.86415378	0.20947049	0.60428661	0.93169835	0.1110358	0.72696582	1.3438434	-0.079649823	0.74507444	1.3235561	0.28036373	0.6583263	1.3703438	0.10442826	0.70507053	1.020387	-0.13420438	0.68171383	1.00981	0.34811128	0.88072896	0.84772491	-0.12053005	0.86897957	0.84877544	0.36440342
339	1.352	0.56873199	0.084381753	-0.017637093	0.85132144	0.036317467	0.17032569	0.52815552	0.20731859	-0.042247075	0.71431194	0.061648635	0.18961137	0.54801489	0.21592943	0.040368125	0.73602095	0.08136143	0.10276299	0.46651655	0.24787947	0.0082467736	0.66065418	0.039011111	0.12940849	0.83389781	0.42380294	-0.070142424	0.80510681	0.44191717	0.21497618	0.83669914	0.41346818	0.053231263	0.76241509	0.43213043	0.092940414	0.70293444	0.8016589	-0.071122942	0.72915368	0.81104735	0.27334951	0.78049596	0.85265073	-0.0337187	0.81237119	0.86542881	0.20976628	0.61030088	0.93308594	0.1116977	0.73219613	1.3453184	-0.079646546	0.75085056	1.3255373	0.28024653	0.66379361	1.3717891	0.10446689	0.70788678	1.0223675	-0.13415884	0.68946045	1.0114102	0.34865349	0.88140912	0.84744524	-0.12240675	0.87899576	0.85282496	0.36297734
340	1.356	0.58601969	0.084227021	-0.019042948	0.85130364	0.036326826	0.17032785	0.54208195	0.2060674	-0.042157153	0.714283	0.061793277	0.18958501	0.56237763	0.21440408	0.040440419	0.73598605	0.081460642	0.10277434	0.47959072	0.24481171	0.0089842097	0.66065067	0.039080281	0.12931101	0.844444	0.42729423	-0.070081178	0.80584185	0.44189164	0.21483965	0.8475254	0.41705386	0.053339506	0.7629936	0.43239248	0.092672462	0.70979252	0.80390865	-0.071575006	0.73423425	0.81171262	0.27348437	0.78673543	0.85471024	-0.033236784	0.81782369	0.86659751	0.21005493	0.61634916	0.93441016	0.11235912	0.73742782	1.3467151	-0.079664241	0.75661718	1.3274466	0.28012645	0.66924961	1.3731632	0.10450395	0.71074204	1.0242952	-0.13401319	0.69713037	1.0129492	0.34920488	0.88208621	0.84714635	-0.12427802	0.88895632	0.85686019	0.36155622
341	1.36	0.60338451	0.083948703	-0.020424334	0.85129392	0.03633292	0.17032901	0.55611958	0.20459391	-0.042039834	0.71425236	0.061922463	0.18954673	0.57696928	0.2126831	0.040441061	0.73602004	0.08154685	0.10273041	0.49275527	0.24148452	0.0097277729	0.66061914	0.039128883	0.12919977	0.85479454	0.43075475	-0.070046052	0.80652888	0.44187894	0.21469361	0.85818156	0.42058326	0.053426786	0.76366602	0.43261611	0.092362711	0.71656747	0.80615705	-0.071916365	0.73992133	0.81248071	0.27328569	0.79308012	0.8567238	-0.032742341	0.82326379	0.86766315	0.21033274	0.62227359	0.93566992	0.11279562	0.74267797	1.3480321	-0.07971916	0.76237066	1.3292732	0.27999718	0.67469928	1.3744616	0.10453298	0.71361928	1.0261568	-0.13383258	0.70466811	1.014413	0.34973042	0.88274803	0.84682479	-0.12614725	0.89888342	0.86087413	0.36012914
342	1.364	0.62077834	0.083562007	-0.021764755	0.85129143	0.036338159	0.17032884	0.57025716	0.20291834	-0.041915243	0.7142254	0.062029892	0.18949481	0.59176475	0.21077262	0.040390254	0.7361027	0.081612982	0.10264088	0.5060299	0.23789351	0.010464809	0.66054843	0.039170083	0.12909444	0.86493349	0.43418704	-0.070049143	0.80716732	0.44187616	0.21453806	0.86864941	0.42403484	0.053490008	0.76439939	0.43284616	0.092079699	0.72317135	0.80837264	-0.072148731	0.7456251	0.81320199	0.27298437	0.79940584	0.85868686	-0.032283056	0.82868764	0.8686291	0.21059696	0.62804321	0.93686416	0.11299653	0.74794984	1.3492679	-0.079812565	0.7681123	1.3310134	0.27985742	0.68013633	1.3756896	0.10455162	0.71651015	1.0279463	-0.13366188	0.71211072	1.0158088	0.35021797	0.88337491	0.84648116	-0.12802289	0.90880644	0.86487013	0.35868883
343	1.368	0.63814825	0.08309415	-0.02303961	0.85129317	0.036342235	0.17032827	0.58448934	0.20105716	-0.041804975	0.71420797	0.062123573	0.18943182	0.60662485	0.20869999	0.040328993	0.73619242	0.081658326	0.10253861	0.51946865	0.23403119	0.011162073	0.66047464	0.039228248	0.1289939	0.87489269	0.43758238	-0.070076056	0.80778858	0.44186759	0.21437672	0.87899403	0.42743098	0.05358871	0.76522821	0.43312399	0.091860322	0.72965403	0.81050231	-0.072416709	0.75105128	0.81378585	0.27270348	0.8055319	0.86056582	-0.031931789	0.8341017	0.8694969	0.21084824	0.63371998	0.93798976	0.11308018	0.75321846	1.3504186	-0.079919571	0.77384547	1.3326663	0.2797099	0.68555278	1.3768558	0.10456279	0.71941255	1.0296601	-0.13352004	0.71954723	1.0171512	0.35068527	0.88396679	0.8461143	-0.12990548	0.91872781	0.86885145	0.35723591
